<mxfile host="65bd71144e">
    <diagram id="Y86ME5r39prPMLShu3kK" name="Page-1">
        <mxGraphModel dx="1054" dy="607" grid="1" gridSize="10" guides="1" tooltips="1" connect="1" arrows="1" fold="1" page="1" pageScale="1" pageWidth="850" pageHeight="1100" math="0" shadow="0">
            <root>
                <mxCell id="0"/>
                <mxCell id="1" parent="0"/>
                <mxCell id="25" value="Member State" style="whiteSpace=wrap;html=1;fillColor=#E6E6E6;strokeColor=#E6E6E6;verticalAlign=top;" parent="1" vertex="1">
                    <mxGeometry x="25" y="120" width="625" height="440" as="geometry"/>
                </mxCell>
                <mxCell id="26" value="Member State" style="whiteSpace=wrap;html=1;fillColor=#E6E6E6;strokeColor=#E6E6E6;verticalAlign=top;" parent="1" vertex="1">
                    <mxGeometry x="660" y="120" width="180" height="440" as="geometry"/>
                </mxCell>
                <mxCell id="32" value="&lt;font style=&quot;color: rgb(255, 255, 255);&quot;&gt;MyHealth@EU&lt;/font&gt;" style="whiteSpace=wrap;html=1;fillColor=#999999;strokeColor=#E6E6E6;verticalAlign=top;" parent="1" vertex="1">
                    <mxGeometry x="57" y="164" width="773" height="90" as="geometry"/>
                </mxCell>
                <mxCell id="14" value="Healthcare Provider" style="whiteSpace=wrap;html=1;verticalAlign=top;" parent="1" vertex="1">
                    <mxGeometry x="40" y="349" width="270" height="190" as="geometry"/>
                </mxCell>
                <mxCell id="3" value="&lt;font color=&quot;#ffffff&quot;&gt;EHR System&lt;/font&gt;" style="whiteSpace=wrap;html=1;strokeColor=#FFFFFF;fillColor=#000000;verticalAlign=middle;" parent="1" vertex="1">
                    <mxGeometry x="57" y="465" width="100" height="58" as="geometry"/>
                </mxCell>
                <mxCell id="5" value="&lt;font style=&quot;color: rgb(255, 255, 255);&quot;&gt;EHR system&lt;/font&gt;&lt;div&gt;&lt;font style=&quot;color: rgb(255, 255, 255);&quot;&gt;API&lt;/font&gt;&lt;/div&gt;" style="whiteSpace=wrap;html=1;fillColor=#0066CC;fontColor=light-dark(#fafafa, #ededed);" parent="1" vertex="1">
                    <mxGeometry x="70" y="389" width="75" height="40" as="geometry"/>
                </mxCell>
                <mxCell id="6" value="&lt;font color=&quot;#ffffff&quot;&gt;EHR System&lt;/font&gt;" style="whiteSpace=wrap;html=1;strokeColor=#FFFFFF;fillColor=#000000;verticalAlign=middle;" parent="1" vertex="1">
                    <mxGeometry x="190" y="380" width="100" height="58" as="geometry"/>
                </mxCell>
                <mxCell id="7" value="" style="endArrow=classic;startArrow=none;html=1;fillColor=#a20025;strokeColor=#6F0000;strokeWidth=3;endSize=3;startSize=3;startFill=0;exitX=0.5;exitY=1;exitDx=0;exitDy=0;" parent="1" source="5" target="3" edge="1">
                    <mxGeometry width="50" height="50" relative="1" as="geometry">
                        <mxPoint x="139.5" y="712" as="sourcePoint"/>
                        <mxPoint x="139.5" y="676" as="targetPoint"/>
                    </mxGeometry>
                </mxCell>
                <mxCell id="8" value="" style="endArrow=classic;startArrow=none;html=1;fillColor=#a20025;strokeColor=#6F0000;strokeWidth=3;endSize=3;startSize=3;startFill=0;exitX=1;exitY=0.5;exitDx=0;exitDy=0;entryX=0;entryY=0.5;entryDx=0;entryDy=0;" parent="1" source="5" target="6" edge="1">
                    <mxGeometry width="50" height="50" relative="1" as="geometry">
                        <mxPoint x="149.5" y="722" as="sourcePoint"/>
                        <mxPoint x="149.5" y="686" as="targetPoint"/>
                        <Array as="points">
                            <mxPoint x="170" y="409"/>
                        </Array>
                    </mxGeometry>
                </mxCell>
                <mxCell id="9" value="&lt;font color=&quot;#ffffff&quot;&gt;Wellness&lt;/font&gt;&lt;div&gt;&lt;font color=&quot;#ffffff&quot;&gt;Application&lt;/font&gt;&lt;/div&gt;" style="whiteSpace=wrap;html=1;strokeColor=#FFFFFF;fillColor=#000000;verticalAlign=middle;" parent="1" vertex="1">
                    <mxGeometry x="474" y="465" width="140" height="58" as="geometry"/>
                </mxCell>
                <mxCell id="10" value="&lt;div&gt;&lt;font style=&quot;color: rgb(255, 255, 255);&quot;&gt;Wellness API&lt;/font&gt;&lt;/div&gt;" style="whiteSpace=wrap;html=1;fillColor=#0066CC;fontColor=light-dark(#fafafa, #ededed);" parent="1" vertex="1">
                    <mxGeometry x="270" y="474" width="75" height="40" as="geometry"/>
                </mxCell>
                <mxCell id="11" value="" style="endArrow=classic;startArrow=none;html=1;fillColor=#a20025;strokeColor=#6F0000;strokeWidth=3;endSize=3;startSize=3;startFill=0;exitX=0;exitY=0.5;exitDx=0;exitDy=0;entryX=1;entryY=0.5;entryDx=0;entryDy=0;" parent="1" source="10" target="3" edge="1">
                    <mxGeometry width="50" height="50" relative="1" as="geometry">
                        <mxPoint x="118" y="439" as="sourcePoint"/>
                        <mxPoint x="117" y="475" as="targetPoint"/>
                    </mxGeometry>
                </mxCell>
                <mxCell id="12" value="" style="endArrow=classic;startArrow=none;html=1;fillColor=#a20025;strokeColor=#6F0000;strokeWidth=3;endSize=3;startSize=3;startFill=0;exitX=1;exitY=0.5;exitDx=0;exitDy=0;entryX=0;entryY=0.5;entryDx=0;entryDy=0;" parent="1" source="10" target="9" edge="1">
                    <mxGeometry width="50" height="50" relative="1" as="geometry">
                        <mxPoint x="212" y="504" as="sourcePoint"/>
                        <mxPoint x="167" y="504" as="targetPoint"/>
                    </mxGeometry>
                </mxCell>
                <mxCell id="15" value="Healthcare Provider" style="whiteSpace=wrap;html=1;verticalAlign=top;" parent="1" vertex="1">
                    <mxGeometry x="330" y="349" width="140" height="100" as="geometry"/>
                </mxCell>
                <mxCell id="16" value="&lt;font color=&quot;#ffffff&quot;&gt;EHR System&lt;/font&gt;" style="whiteSpace=wrap;html=1;strokeColor=#FFFFFF;fillColor=#000000;verticalAlign=middle;" parent="1" vertex="1">
                    <mxGeometry x="350" y="380" width="100" height="58" as="geometry"/>
                </mxCell>
                <mxCell id="19" style="edgeStyle=orthogonalEdgeStyle;html=1;exitX=0;exitY=0.5;exitDx=0;exitDy=0;entryX=0.5;entryY=0;entryDx=0;entryDy=0;strokeColor=#660000;strokeWidth=3;endSize=3;startSize=3;" parent="1" source="17" target="14" edge="1">
                    <mxGeometry relative="1" as="geometry"/>
                </mxCell>
                <mxCell id="17" value="&lt;font style=&quot;color: rgb(255, 255, 255);&quot;&gt;National Infrastructure API&lt;br&gt;&lt;/font&gt;" style="whiteSpace=wrap;html=1;fillColor=#0066CC;fontColor=light-dark(#fafafa, #ededed);" parent="1" vertex="1">
                    <mxGeometry x="210" y="280" width="170" height="30" as="geometry"/>
                </mxCell>
                <mxCell id="21" style="edgeStyle=orthogonalEdgeStyle;html=1;exitX=1;exitY=0.5;exitDx=0;exitDy=0;entryX=0.5;entryY=0;entryDx=0;entryDy=0;strokeColor=#660000;strokeWidth=3;endSize=3;startSize=3;" parent="1" source="17" target="15" edge="1">
                    <mxGeometry relative="1" as="geometry">
                        <mxPoint x="260" y="275" as="sourcePoint"/>
                        <mxPoint x="185" y="340" as="targetPoint"/>
                    </mxGeometry>
                </mxCell>
                <mxCell id="22" value="&lt;font color=&quot;#ffffff&quot;&gt;National&lt;/font&gt;&lt;div&gt;&lt;font color=&quot;#ffffff&quot;&gt;Contact Point&lt;/font&gt;&lt;/div&gt;" style="whiteSpace=wrap;html=1;strokeColor=#FFFFFF;fillColor=#000000;verticalAlign=middle;" parent="1" vertex="1">
                    <mxGeometry x="90" y="180" width="100" height="58" as="geometry"/>
                </mxCell>
                <mxCell id="23" style="edgeStyle=orthogonalEdgeStyle;html=1;exitX=0;exitY=0.5;exitDx=0;exitDy=0;entryX=0.5;entryY=1;entryDx=0;entryDy=0;strokeColor=#660000;strokeWidth=3;endSize=3;startSize=3;" parent="1" source="17" target="22" edge="1">
                    <mxGeometry relative="1" as="geometry">
                        <mxPoint x="220" y="305" as="sourcePoint"/>
                        <mxPoint x="185" y="340" as="targetPoint"/>
                    </mxGeometry>
                </mxCell>
                <mxCell id="24" value="&lt;font color=&quot;#ffffff&quot;&gt;National&lt;/font&gt;&lt;div&gt;&lt;font color=&quot;#ffffff&quot;&gt;Contact Point&lt;/font&gt;&lt;/div&gt;" style="whiteSpace=wrap;html=1;strokeColor=#FFFFFF;fillColor=#000000;verticalAlign=middle;" parent="1" vertex="1">
                    <mxGeometry x="700" y="180" width="100" height="58" as="geometry"/>
                </mxCell>
                <mxCell id="27" value="&lt;font style=&quot;color: rgb(255, 255, 255);&quot;&gt;Cross-border API&lt;br&gt;&lt;/font&gt;" style="whiteSpace=wrap;html=1;fillColor=#0066CC;fontColor=light-dark(#fafafa, #ededed);" parent="1" vertex="1">
                    <mxGeometry x="359" y="194" width="170" height="30" as="geometry"/>
                </mxCell>
                <mxCell id="30" value="" style="endArrow=classic;startArrow=none;html=1;fillColor=#a20025;strokeColor=#6F0000;strokeWidth=3;endSize=3;startSize=3;startFill=0;exitX=1;exitY=0.5;exitDx=0;exitDy=0;" parent="1" source="27" target="24" edge="1">
                    <mxGeometry width="50" height="50" relative="1" as="geometry">
                        <mxPoint x="531" y="210" as="sourcePoint"/>
                        <mxPoint x="530" y="246" as="targetPoint"/>
                    </mxGeometry>
                </mxCell>
                <mxCell id="31" value="" style="endArrow=classic;startArrow=none;html=1;fillColor=#a20025;strokeColor=#6F0000;strokeWidth=3;endSize=3;startSize=3;startFill=0;exitX=0;exitY=0.5;exitDx=0;exitDy=0;entryX=1;entryY=0.5;entryDx=0;entryDy=0;" parent="1" source="27" target="22" edge="1">
                    <mxGeometry width="50" height="50" relative="1" as="geometry">
                        <mxPoint x="291" y="10" as="sourcePoint"/>
                        <mxPoint x="290" y="46" as="targetPoint"/>
                    </mxGeometry>
                </mxCell>
                <mxCell id="33" value="Healthcare Provider" style="whiteSpace=wrap;html=1;verticalAlign=top;" parent="1" vertex="1">
                    <mxGeometry x="680" y="349" width="140" height="100" as="geometry"/>
                </mxCell>
                <mxCell id="34" value="" style="endArrow=classic;startArrow=none;html=1;fillColor=#a20025;strokeColor=#6F0000;strokeWidth=3;endSize=3;startSize=3;startFill=0;exitX=0.5;exitY=1;exitDx=0;exitDy=0;" parent="1" source="24" target="33" edge="1">
                    <mxGeometry width="50" height="50" relative="1" as="geometry">
                        <mxPoint x="920" y="280" as="sourcePoint"/>
                        <mxPoint x="973" y="280" as="targetPoint"/>
                    </mxGeometry>
                </mxCell>
                <mxCell id="35" value="&lt;font color=&quot;#ffffff&quot;&gt;Patient&lt;/font&gt;&lt;div&gt;&lt;font color=&quot;#ffffff&quot;&gt;App&lt;/font&gt;&lt;/div&gt;" style="whiteSpace=wrap;html=1;strokeColor=#FFFFFF;fillColor=#000000;verticalAlign=middle;" parent="1" vertex="1">
                    <mxGeometry x="500" y="402" width="100" height="58" as="geometry"/>
                </mxCell>
                <mxCell id="36" value="&lt;font color=&quot;#ffffff&quot;&gt;Proxy Services&lt;/font&gt;" style="whiteSpace=wrap;html=1;strokeColor=#FFFFFF;fillColor=#000000;verticalAlign=middle;" parent="1" vertex="1">
                    <mxGeometry x="500" y="266" width="100" height="58" as="geometry"/>
                </mxCell>
                <mxCell id="37" value="" style="endArrow=classic;startArrow=none;html=1;fillColor=#a20025;strokeColor=#6F0000;strokeWidth=3;endSize=3;startSize=3;startFill=0;exitX=0.5;exitY=0;exitDx=0;exitDy=0;entryX=0.5;entryY=1;entryDx=0;entryDy=0;" parent="1" source="35" target="36" edge="1">
                    <mxGeometry width="50" height="50" relative="1" as="geometry">
                        <mxPoint x="118" y="530" as="sourcePoint"/>
                        <mxPoint x="117" y="566" as="targetPoint"/>
                    </mxGeometry>
                </mxCell>
                <mxCell id="38" value="" style="endArrow=classic;startArrow=none;html=1;fillColor=#a20025;strokeColor=#6F0000;strokeWidth=3;endSize=3;startSize=3;startFill=0;entryX=0;entryY=0.5;entryDx=0;entryDy=0;exitX=1;exitY=0.5;exitDx=0;exitDy=0;" parent="1" source="17" target="36" edge="1">
                    <mxGeometry width="50" height="50" relative="1" as="geometry">
                        <mxPoint x="550" y="392" as="sourcePoint"/>
                        <mxPoint x="550" y="338" as="targetPoint"/>
                    </mxGeometry>
                </mxCell>
                <mxCell id="42" value="&lt;font style=&quot;color: rgb(255, 255, 255);&quot;&gt;Patient Access API&lt;br&gt;&lt;/font&gt;" style="whiteSpace=wrap;html=1;fillColor=#0066CC;fontColor=light-dark(#fafafa, #ededed);" parent="1" vertex="1">
                    <mxGeometry x="489" y="349" width="125" height="30" as="geometry"/>
                </mxCell>
            </root>
        </mxGraphModel>
    </diagram>
</mxfile>